ply
format ascii 1.0
comment Created by Blender 2.79 (sub 0) - www.blender.org, source file: 'eraser.blend'
element vertex 68
property float x
property float y
property float z
element face 66
property list uchar uint vertex_indices
end_header
-0.320000 0.661920 0.096621
-0.295790 0.661663 0.138902
-0.295790 0.746555 0.138902
-0.320000 0.807220 0.096621
0.262400 0.807220 0.096621
0.242694 0.746555 0.138902
0.295951 0.746555 0.138902
0.320000 0.807220 0.096621
0.320000 -0.645776 0.096621
0.295951 -0.646330 0.138902
0.295951 -0.746149 0.138902
0.320000 -0.807220 0.096621
-0.256000 -0.807220 0.096621
-0.236616 -0.746149 0.138902
-0.295790 -0.746149 0.138902
-0.320000 -0.807220 0.096621
-0.256000 -0.807220 -0.138902
-0.320000 -0.807220 -0.138902
-0.312263 -0.787702 -0.216586
-0.256000 -0.807220 -0.221167
-0.256000 -0.645776 0.138902
-0.295790 -0.646330 0.138902
0.262400 -0.645776 -0.221167
0.320000 -0.645776 -0.221167
0.312263 -0.787702 -0.216586
0.262400 -0.807220 -0.221167
0.262400 0.807220 -0.138902
0.320000 0.807220 -0.138902
0.312263 0.787702 -0.216586
0.262400 0.807220 -0.221167
-0.320000 0.661920 -0.138902
-0.320000 0.807220 -0.138902
-0.312263 0.787702 -0.216586
-0.320000 0.661920 -0.221167
0.320000 -0.645776 -0.138902
0.320000 -0.807220 -0.138902
0.320000 0.661920 -0.138902
0.320000 0.661920 -0.221167
-0.320000 -0.645776 -0.138902
-0.320000 -0.645776 -0.221167
0.262400 0.661920 -0.221167
-0.256000 0.661920 0.138902
0.320000 0.661920 0.096621
0.295951 0.661663 0.138902
-0.320000 -0.645776 0.096621
-0.236616 0.746555 0.138902
-0.256000 0.807220 -0.221167
-0.256000 0.661920 -0.221167
0.262400 0.661920 0.138902
0.262400 -0.645776 0.138902
-0.256000 -0.645776 -0.221167
-0.256000 0.807220 -0.138902
0.242694 -0.746149 0.138902
0.262400 -0.807220 -0.138902
0.262400 -0.807220 0.096621
-0.256000 0.807220 0.096621
-0.256000 0.807220 -0.116580
0.262400 0.807220 -0.116580
0.320000 -0.807220 -0.116580
0.262400 -0.807220 -0.116580
-0.320000 0.807220 -0.116580
-0.256000 -0.807220 -0.116580
-0.320000 -0.645776 -0.116580
-0.320000 0.661920 -0.116580
0.320000 0.807220 -0.116580
0.320000 0.661920 -0.116580
-0.320000 -0.807220 -0.116580
0.320000 -0.645776 -0.116580
4 0 1 2 3
4 4 5 6 7
4 8 9 10 11
4 12 13 14 15
4 16 17 18 19
4 20 21 14 13
4 22 23 24 25
4 26 27 28 29
4 30 31 32 33
4 34 35 24 23
4 36 34 23 37
4 17 38 39 18
4 40 37 23 22
4 41 1 21 20
4 42 43 9 8
4 15 14 21 44
4 7 6 43 42
4 45 2 1 41
4 29 28 37 40
4 27 36 37 28
4 38 30 33 39
4 44 21 1 0
4 32 46 47 33
4 5 45 41 48
4 48 41 20 49
4 33 47 50 39
4 31 51 46 32
4 39 50 19 18
4 49 20 13 52
4 53 16 19 25
4 54 52 13 12
4 3 2 45 55
4 11 10 52 54
4 35 53 25 24
4 9 49 52 10
4 43 48 49 9
4 6 5 48 43
4 46 29 40 47
4 47 40 22 50
4 51 26 29 46
4 50 22 25 19
4 55 45 5 4
4 51 56 57 26
4 35 58 59 53
4 31 60 56 51
4 53 59 61 16
4 38 62 63 30
4 27 64 65 36
4 17 66 62 38
4 36 65 67 34
4 66 17 16 61
4 34 67 58 35
4 26 57 64 27
4 30 63 60 31
4 56 55 4 57
4 58 11 54 59
4 60 3 55 56
4 59 54 12 61
4 62 44 0 63
4 64 7 42 65
4 66 15 44 62
4 65 42 8 67
4 61 12 15 66
4 67 8 11 58
4 57 4 7 64
4 63 0 3 60
