ply
format ascii 1.0
comment Created by Blender 2.79 (sub 0) - www.blender.org, source file: 'eraser.blend'
element vertex 234
property float x
property float y
property float z
property float nx
property float ny
property float nz
property uchar red
property uchar green
property uchar blue
element face 132
property list uchar uint vertex_indices
end_header
-0.320000 0.661920 0.096621 -0.867806 0.000000 0.496903 255 78 118
-0.295790 0.746555 0.138902 -0.867806 0.000000 0.496903 255 78 118
-0.320000 0.807220 0.096621 -0.867806 0.000000 0.496903 255 78 118
0.262400 0.807220 0.096621 0.000000 0.571786 0.820403 255 78 118
0.295951 0.746555 0.138902 0.000000 0.571786 0.820403 255 78 118
0.320000 0.807220 0.096621 0.000000 0.571786 0.820403 255 78 118
0.320000 -0.645776 0.096621 0.869230 -0.000000 0.494408 255 78 118
0.295951 -0.746149 0.138902 0.869230 -0.000000 0.494408 255 78 118
0.320000 -0.807220 0.096621 0.869230 -0.000000 0.494408 255 78 118
-0.256000 -0.807220 0.096621 -0.000001 -0.569217 0.822187 255 78 118
-0.295790 -0.746149 0.138902 -0.000001 -0.569217 0.822187 255 78 118
-0.320000 -0.807220 0.096621 -0.000001 -0.569217 0.822187 255 78 118
-0.256000 -0.807220 -0.138902 -0.327745 -0.944766 0.000000 255 78 118
-0.312263 -0.787702 -0.216586 -0.327745 -0.944766 0.000000 64 20 30
-0.256000 -0.807220 -0.221167 -0.327745 -0.944766 0.000000 64 20 30
-0.256000 -0.645776 0.138902 0.000000 -0.000000 1.000000 255 78 118
-0.295790 -0.746149 0.138902 0.000000 -0.000000 1.000000 255 78 118
-0.236616 -0.746149 0.138902 0.000000 -0.000000 1.000000 255 78 118
0.262400 -0.645776 -0.221167 0.091484 0.000000 -0.995807 89 28 42
0.312263 -0.787702 -0.216586 0.091484 0.000000 -0.995807 64 20 30
0.262400 -0.807220 -0.221167 0.091484 0.000000 -0.995807 64 20 30
0.262400 0.807220 -0.138902 0.364502 0.931202 0.000000 210 64 97
0.312263 0.787702 -0.216586 0.364502 0.931202 0.000000 64 20 30
0.262400 0.807220 -0.221167 0.364502 0.931202 0.000000 64 20 30
-0.320000 0.661920 -0.138902 -0.998113 0.061398 0.000000 255 78 118
-0.312263 0.787702 -0.216586 -0.998113 0.061398 0.000000 64 20 30
-0.320000 0.661920 -0.221167 -0.998113 0.061398 0.000000 65 20 30
0.320000 -0.645776 -0.138902 0.998517 -0.054436 0.000000 250 76 116
0.312263 -0.787702 -0.216586 0.998517 -0.054436 0.000000 64 20 30
0.320000 -0.645776 -0.221167 0.998517 -0.054436 0.000000 65 21 31
0.320000 -0.645776 -0.138902 1.000000 0.000000 0.000000 250 76 116
0.320000 0.661920 -0.221167 1.000000 0.000000 0.000000 64 20 30
0.320000 0.661920 -0.138902 1.000000 0.000000 0.000000 165 50 77
-0.320000 -0.645776 -0.138902 -0.995077 0.000000 -0.099109 255 78 118
-0.312263 -0.787702 -0.216586 -0.995077 0.000000 -0.099109 64 20 30
-0.320000 -0.807220 -0.138902 -0.995077 0.000000 -0.099109 255 78 118
0.320000 0.661920 -0.221167 0.000000 0.000000 -1.000000 64 20 30
0.262400 -0.645776 -0.221167 0.000000 0.000000 -1.000000 165 50 77
0.262400 0.661920 -0.221167 0.000000 0.000000 -1.000000 70 22 33
-0.295790 0.661663 0.138902 -0.000008 -0.000000 1.000000 255 78 118
-0.256000 -0.645776 0.138902 -0.000008 -0.000000 1.000000 255 78 118
-0.256000 0.661920 0.138902 -0.000008 -0.000000 1.000000 255 78 118
0.295951 0.661663 0.138902 0.869230 0.000000 0.494408 255 78 118
0.320000 0.661920 0.096621 0.869230 0.000000 0.494408 255 78 118
-0.295790 -0.746149 0.138902 -0.867804 0.000000 0.496906 255 78 118
-0.320000 -0.645776 0.096621 -0.867804 0.000000 0.496906 255 78 118
-0.320000 -0.807220 0.096621 -0.867804 0.000000 0.496906 255 114 146
0.295951 0.746555 0.138902 0.869230 -0.000000 0.494408 255 78 118
0.320000 0.807220 0.096621 0.869230 -0.000000 0.494408 255 78 118
-0.295790 0.746555 0.138902 0.000000 0.000000 1.000000 255 78 118
-0.256000 0.661920 0.138902 0.000000 0.000000 1.000000 255 78 118
-0.236616 0.746555 0.138902 0.000000 0.000000 1.000000 255 78 118
0.312263 0.787702 -0.216586 0.091484 0.000000 -0.995807 74 23 34
0.262400 0.661920 -0.221167 0.091484 0.000000 -0.995807 64 20 30
0.262400 0.807220 -0.221167 0.091484 0.000000 -0.995807 65 20 31
0.320000 0.661920 -0.138902 0.995077 0.000000 -0.099109 165 50 77
0.312263 0.787702 -0.216586 0.995077 0.000000 -0.099109 64 20 30
0.320000 0.807220 -0.138902 0.995077 0.000000 -0.099109 195 60 90
-0.320000 0.661920 -0.138902 -1.000000 0.000000 0.000000 255 78 118
-0.320000 -0.645776 -0.221167 -1.000000 0.000000 0.000000 64 20 30
-0.320000 -0.645776 -0.138902 -1.000000 0.000000 0.000000 255 78 118
-0.295790 0.661663 0.138902 -0.867804 -0.000000 0.496906 255 80 120
-0.320000 0.661920 0.096621 -0.867804 -0.000000 0.496906 255 78 118
-0.312263 0.787702 -0.216586 0.000000 0.036395 -0.999338 89 28 42
-0.256000 0.661920 -0.221167 0.000000 0.036395 -0.999338 132 41 61
-0.320000 0.661920 -0.221167 0.000000 0.036395 -0.999338 249 76 115
0.242694 0.746555 0.138902 0.000000 -0.000000 1.000000 255 78 118
0.262400 0.661920 0.138902 0.000000 -0.000000 1.000000 255 78 118
0.262400 -0.645776 0.138902 0.000000 0.000000 1.000000 255 78 118
-0.256000 0.661920 -0.221167 0.000000 0.000000 -1.000000 132 41 61
-0.320000 -0.645776 -0.221167 0.000000 0.000000 -1.000000 255 84 122
-0.320000 0.661920 -0.221167 0.000000 0.000000 -1.000000 222 68 103
-0.256000 0.807220 -0.138902 0.000000 0.969858 -0.243673 255 78 118
-0.312263 0.787702 -0.216586 0.000000 0.969858 -0.243673 64 20 30
-0.320000 0.807220 -0.138902 0.000000 0.969858 -0.243673 255 78 118
-0.256000 -0.645776 -0.221167 0.000000 -0.032259 -0.999479 65 20 31
-0.312263 -0.787702 -0.216586 0.000000 -0.032259 -0.999479 64 20 30
-0.320000 -0.645776 -0.221167 0.000000 -0.032259 -0.999479 64 20 30
-0.256000 -0.645776 0.138902 -0.000001 0.000000 1.000000 255 78 118
0.242694 -0.746149 0.138902 -0.000001 0.000000 1.000000 255 78 118
0.262400 -0.645776 0.138902 -0.000001 0.000000 1.000000 255 78 118
-0.256000 -0.807220 -0.138902 -0.000000 -1.000000 -0.000000 255 78 118
0.262400 -0.807220 -0.221167 -0.000000 -1.000000 -0.000000 64 20 30
0.262400 -0.807220 -0.138902 -0.000000 -1.000000 -0.000000 255 78 118
0.242694 -0.746149 0.138902 0.000000 -0.569220 0.822185 255 78 118
-0.256000 -0.807220 0.096621 0.000000 -0.569220 0.822185 255 78 118
0.262400 -0.807220 0.096621 0.000000 -0.569220 0.822185 255 78 118
-0.295790 0.746555 0.138902 -0.000000 0.571787 0.820402 255 78 118
-0.256000 0.807220 0.096621 -0.000000 0.571787 0.820402 255 78 118
-0.320000 0.807220 0.096621 -0.000000 0.571787 0.820402 255 78 118
0.295951 -0.746149 0.138902 0.000000 -0.569220 0.822185 255 78 118
0.320000 -0.807220 0.096621 0.000000 -0.569220 0.822185 255 78 118
0.262400 -0.807220 -0.138902 0.000000 -0.969858 -0.243673 255 78 118
0.312263 -0.787702 -0.216586 0.000000 -0.969858 -0.243673 64 20 30
0.320000 -0.807220 -0.138902 0.000000 -0.969858 -0.243673 255 78 118
0.295951 -0.746149 0.138902 0.000000 0.000000 1.000000 255 78 118
0.295951 -0.646330 0.138902 0.000000 0.000000 1.000000 255 78 118
0.295951 0.661663 0.138902 0.000000 -0.000000 1.000000 255 78 118
0.295951 0.746555 0.138902 0.000000 -0.000000 1.000000 255 78 118
0.262400 0.807220 -0.221167 0.000000 0.000000 -1.000000 65 20 31
-0.256000 0.807220 -0.221167 0.000000 0.000000 -1.000000 217 66 100
0.262400 0.661920 -0.221167 0.000000 0.000000 -1.000000 129 40 60
-0.256000 -0.645776 -0.221167 0.000000 0.000000 -1.000000 203 62 93
-0.256000 0.661920 -0.221167 0.000000 0.000000 -1.000000 64 20 30
0.262400 0.807220 -0.138902 -0.000000 1.000000 0.000000 212 65 97
-0.256000 0.807220 -0.221167 -0.000000 1.000000 0.000000 64 20 30
-0.256000 0.807220 -0.138902 -0.000000 1.000000 0.000000 255 78 118
0.262400 -0.645776 -0.221167 0.000000 0.000000 -1.000000 89 28 42
-0.256000 -0.807220 -0.221167 0.000000 0.000000 -1.000000 64 20 30
-0.256000 -0.645776 -0.221167 0.000000 0.000000 -1.000000 64 20 30
-0.256000 0.807220 0.096621 -0.000000 0.571787 0.820403 255 78 118
0.242694 0.746555 0.138902 -0.000000 0.571787 0.820403 255 78 118
0.262400 0.807220 0.096621 -0.000000 0.571787 0.820403 255 78 118
-0.256000 0.807220 -0.116580 0.000000 1.000000 -0.000000 255 78 118
0.320000 -0.807220 -0.116580 0.000000 -1.000000 0.000000 255 78 118
0.320000 -0.807220 -0.138902 0.000000 -1.000000 0.000000 255 78 118
-0.320000 0.807220 -0.116580 0.000000 1.000000 -0.000000 255 78 118
-0.320000 0.807220 -0.138902 0.000000 1.000000 -0.000000 255 78 118
0.262400 -0.807220 -0.116580 0.000000 -1.000000 0.000000 255 78 118
-0.320000 -0.645776 -0.116580 -1.000000 0.000000 0.000000 255 78 118
0.320000 0.807220 -0.116580 1.000000 0.000000 -0.000000 255 78 118
0.320000 0.807220 -0.138902 1.000000 0.000000 -0.000000 195 60 90
-0.320000 -0.807220 -0.116580 -1.000000 0.000000 0.000000 255 78 118
-0.320000 -0.807220 -0.138902 -1.000000 0.000000 0.000000 255 78 118
0.320000 0.661920 -0.116580 1.000000 0.000000 -0.000000 253 77 117
0.320000 -0.645776 -0.138902 1.000000 0.000000 -0.000000 255 78 118
-0.256000 -0.807220 -0.116580 0.000000 -1.000000 0.000000 255 78 118
-0.320000 -0.807220 -0.138902 0.000000 -1.000000 0.000000 255 78 118
0.320000 -0.645776 -0.116580 1.000000 0.000000 -0.000000 255 78 118
0.320000 -0.807220 -0.138902 1.000000 0.000000 -0.000000 255 78 118
0.262400 0.807220 -0.116580 0.000000 1.000000 -0.000000 255 78 118
0.320000 0.807220 -0.138902 0.000000 1.000000 -0.000000 195 60 90
-0.320000 0.661920 -0.116580 -1.000000 0.000000 0.000000 255 78 118
-0.320000 0.807220 -0.138902 -1.000000 0.000000 0.000000 255 78 118
-0.256000 0.807220 0.096621 0.000000 1.000000 -0.000001 255 78 118
0.262400 0.807220 -0.116580 0.000000 1.000000 -0.000001 255 78 118
-0.256000 0.807220 -0.116580 0.000000 1.000000 -0.000001 255 78 118
0.320000 -0.807220 0.096621 -0.000000 -1.000000 -0.000001 255 78 118
0.262400 -0.807220 -0.116580 -0.000000 -1.000000 -0.000001 255 78 118
0.320000 -0.807220 -0.116580 -0.000000 -1.000000 -0.000001 255 78 118
-0.320000 0.807220 -0.116580 0.000000 1.000000 -0.000001 255 78 118
0.262400 -0.807220 0.096621 -0.000000 -1.000000 -0.000001 255 78 118
-0.256000 -0.807220 -0.116580 -0.000000 -1.000000 -0.000001 255 78 118
-0.320000 -0.645776 0.096621 -1.000000 0.000000 0.000000 255 78 118
0.320000 0.807220 0.096621 1.000000 0.000000 0.000000 255 78 118
0.320000 0.661920 0.096621 1.000000 0.000000 0.000000 255 78 118
-0.320000 -0.807220 0.096621 0.000000 -1.000000 -0.000001 255 78 118
-0.320000 -0.807220 -0.116580 0.000000 -1.000000 -0.000001 255 78 118
0.320000 -0.645776 0.096621 1.000000 0.000000 0.000000 255 78 118
0.320000 -0.807220 -0.116580 1.000000 0.000000 0.000000 255 78 118
0.262400 0.807220 0.096621 0.000000 1.000000 -0.000001 255 78 118
0.320000 0.807220 -0.116580 0.000000 1.000000 -0.000001 255 78 118
-0.320000 0.661920 0.096621 -1.000000 0.000000 0.000000 255 78 118
-0.320000 0.807220 -0.116580 -1.000000 0.000000 0.000000 255 78 118
-0.320000 0.661920 0.096621 -0.867804 -0.000002 0.496906 255 78 118
-0.295790 0.661663 0.138902 -0.867804 -0.000002 0.496906 255 80 120
-0.295790 0.746555 0.138902 -0.867804 -0.000002 0.496906 255 78 118
0.242694 0.746555 0.138902 0.000000 0.571786 0.820403 255 78 118
0.320000 -0.645776 0.096621 0.869230 -0.000000 0.494409 255 78 118
0.295951 -0.646330 0.138902 0.869230 -0.000000 0.494409 255 78 118
0.295951 -0.746149 0.138902 0.869230 -0.000000 0.494409 255 78 118
-0.256000 -0.807220 0.096621 0.000000 -0.569217 0.822188 255 78 118
-0.236616 -0.746149 0.138902 0.000000 -0.569217 0.822188 255 78 118
-0.295790 -0.746149 0.138902 0.000000 -0.569217 0.822188 255 78 118
-0.256000 -0.807220 -0.138902 0.000000 -0.969858 -0.243673 255 78 118
-0.320000 -0.807220 -0.138902 0.000000 -0.969858 -0.243673 255 78 118
-0.312263 -0.787702 -0.216586 0.000000 -0.969858 -0.243673 64 20 30
-0.295790 -0.646330 0.138902 0.000000 0.000000 1.000000 255 78 118
0.262400 -0.645776 -0.221167 -0.000000 -0.032259 -0.999479 89 28 42
0.320000 -0.645776 -0.221167 -0.000000 -0.032259 -0.999479 65 21 31
0.312263 -0.787702 -0.216586 -0.000000 -0.032259 -0.999479 64 20 30
0.262400 0.807220 -0.138902 0.000000 0.969858 -0.243673 212 65 97
0.320000 0.807220 -0.138902 0.000000 0.969858 -0.243673 195 60 90
0.312263 0.787702 -0.216586 0.000000 0.969858 -0.243673 64 20 30
-0.320000 0.661920 -0.138902 -0.995077 -0.000000 -0.099109 255 78 118
-0.320000 0.807220 -0.138902 -0.995077 -0.000000 -0.099109 255 78 118
-0.312263 0.787702 -0.216586 -0.995077 -0.000000 -0.099109 64 20 30
0.320000 -0.645776 -0.138902 0.995077 0.000000 -0.099109 250 76 116
0.320000 -0.807220 -0.138902 0.995077 0.000000 -0.099109 255 78 118
0.312263 -0.787702 -0.216586 0.995077 0.000000 -0.099109 64 20 30
0.320000 -0.645776 -0.221167 1.000000 0.000000 -0.000000 65 21 31
-0.320000 -0.645776 -0.138902 -0.998517 -0.054436 0.000000 255 78 118
-0.320000 -0.645776 -0.221167 -0.998517 -0.054436 0.000000 64 20 30
-0.312263 -0.787702 -0.216586 -0.998517 -0.054436 0.000000 64 20 30
0.320000 0.661920 -0.221167 0.000000 0.000000 -1.000000 66 21 31
0.320000 -0.645776 -0.221167 0.000000 0.000000 -1.000000 65 21 31
-0.295790 0.661663 0.138902 0.000000 -0.000000 1.000000 255 78 118
0.295951 0.661663 0.138902 0.869230 -0.000000 0.494409 255 78 118
-0.295790 -0.646330 0.138902 -0.867804 0.000000 0.496906 255 78 118
-0.295790 0.746555 0.138902 -0.000008 -0.000004 1.000000 255 78 118
-0.295790 0.661663 0.138902 -0.000008 -0.000004 1.000000 255 78 118
-0.256000 0.661920 0.138902 -0.000008 -0.000004 1.000000 255 78 118
0.312263 0.787702 -0.216586 0.000000 0.036395 -0.999337 74 23 34
0.320000 0.661920 -0.221167 0.000000 0.036395 -0.999337 64 20 30
0.262400 0.661920 -0.221167 0.000000 0.036395 -0.999337 64 20 30
0.320000 0.661920 -0.138902 0.998113 0.061398 -0.000000 165 50 77
0.320000 0.661920 -0.221167 0.998113 0.061398 -0.000000 64 20 30
0.312263 0.787702 -0.216586 0.998113 0.061398 -0.000000 64 20 30
-0.320000 0.661920 -0.221167 -1.000000 0.000000 0.000000 65 20 30
-0.312263 0.787702 -0.216586 -0.081150 0.000000 -0.996702 89 28 42
-0.256000 0.807220 -0.221167 -0.081150 0.000000 -0.996702 217 66 100
-0.256000 0.661920 -0.221167 -0.081150 0.000000 -0.996702 132 41 61
-0.256000 0.661920 0.138902 -0.000001 -0.000000 1.000000 255 78 118
-0.256000 0.661920 -0.221167 0.000000 0.000000 -1.000000 86 27 40
-0.256000 0.807220 -0.138902 -0.327745 0.944766 0.000000 255 78 118
-0.256000 0.807220 -0.221167 -0.327745 0.944766 0.000000 64 20 30
-0.312263 0.787702 -0.216586 -0.327745 0.944766 0.000000 64 20 30
-0.256000 -0.645776 -0.221167 -0.081150 0.000000 -0.996702 230 70 106
-0.256000 -0.807220 -0.221167 -0.081150 0.000000 -0.996702 119 37 56
-0.312263 -0.787702 -0.216586 -0.081150 0.000000 -0.996702 81 25 38
-0.236616 -0.746149 0.138902 -0.000001 -0.000000 1.000000 255 78 118
-0.256000 -0.807220 -0.221167 0.000000 -1.000000 0.000000 64 20 30
0.242694 -0.746149 0.138902 -0.000001 -0.569217 0.822188 255 78 118
-0.236616 -0.746149 0.138902 -0.000001 -0.569217 0.822188 255 78 118
-0.256000 -0.807220 0.096621 -0.000001 -0.569217 0.822188 255 78 118
-0.236616 0.746555 0.138902 0.000000 0.571787 0.820402 255 78 118
0.262400 -0.807220 -0.138902 0.364502 -0.931202 0.000000 255 78 118
0.262400 -0.807220 -0.221167 0.364502 -0.931202 0.000000 64 20 30
0.312263 -0.787702 -0.216586 0.364502 -0.931202 0.000000 64 20 30
0.242694 -0.746149 0.138902 0.000000 -0.000000 1.000000 255 78 118
0.262400 0.661920 -0.221167 0.000000 0.000000 -1.000000 64 20 30
-0.256000 -0.645776 -0.221167 0.000000 0.000000 -1.000000 230 70 106
0.262400 0.807220 -0.221167 0.000000 1.000000 0.000000 64 20 30
0.262400 -0.807220 -0.221167 0.000000 0.000000 -1.000000 64 20 30
-0.256000 -0.807220 -0.221167 0.000000 0.000000 -1.000000 116 36 55
0.242694 0.746555 0.138902 0.000000 0.571787 0.820402 255 78 118
-0.320000 -0.807220 -0.116580 0.000000 -1.000000 0.000000 255 78 118
0.320000 0.807220 -0.116580 0.000000 1.000000 -0.000000 255 78 118
-0.320000 0.807220 0.096621 0.000000 1.000000 -0.000001 255 78 118
-0.256000 -0.807220 0.096621 -0.000000 -1.000000 -0.000001 255 78 118
-0.320000 -0.807220 0.096621 -1.000000 0.000000 0.000000 255 82 122
0.320000 -0.807220 0.096621 1.000000 -0.000000 0.000000 255 78 118
0.320000 0.807220 0.096621 0.000000 1.000000 -0.000001 255 78 118
-0.320000 0.807220 0.096621 -1.000000 0.000000 0.000000 255 78 118
3 0 1 2
3 3 4 5
3 6 7 8
3 9 10 11
3 12 13 14
3 15 16 17
3 18 19 20
3 21 22 23
3 24 25 26
3 27 28 29
3 30 31 32
3 33 34 35
3 36 37 38
3 39 40 41
3 42 6 43
3 44 45 46
3 47 43 48
3 49 50 51
3 52 53 54
3 55 56 57
3 58 59 60
3 45 61 62
3 63 64 65
3 66 50 67
3 50 68 67
3 69 70 71
3 72 73 74
3 75 76 77
3 78 79 80
3 81 82 83
3 84 85 86
3 87 88 89
3 90 86 91
3 92 93 94
3 68 95 96
3 97 68 96
3 98 67 97
3 99 69 100
3 101 102 103
3 104 105 106
3 107 108 109
3 110 111 112
3 113 104 106
3 114 83 115
3 116 106 117
3 118 81 83
3 119 58 60
3 120 32 121
3 122 60 123
3 124 125 32
3 126 127 81
3 128 129 30
3 130 131 104
3 132 133 58
3 134 135 136
3 137 138 139
3 140 134 136
3 141 142 138
3 143 132 119
3 144 124 120
3 122 143 119
3 145 128 124
3 142 146 147
3 148 149 128
3 150 151 135
3 152 153 132
3 154 155 156
3 3 157 4
3 158 159 160
3 161 162 163
3 164 165 166
3 15 167 16
3 168 169 170
3 171 172 173
3 174 175 176
3 177 178 179
3 30 180 31
3 181 182 183
3 184 185 107
3 186 167 15
3 187 159 158
3 44 188 45
3 47 42 43
3 189 190 191
3 192 193 194
3 195 196 197
3 58 198 59
3 45 188 61
3 199 200 201
3 66 51 50
3 202 78 80
3 203 109 70
3 204 205 206
3 207 208 209
3 78 210 79
3 81 211 82
3 212 213 214
3 87 215 88
3 90 84 86
3 216 217 218
3 68 219 95
3 97 67 68
3 98 66 67
3 99 101 69
3 220 107 221
3 104 222 105
3 107 223 224
3 88 215 225
3 113 130 104
3 114 118 83
3 116 113 106
3 118 126 81
3 119 132 58
3 120 124 32
3 122 119 60
3 124 128 30
3 126 226 127
3 128 149 129
3 130 227 131
3 132 153 133
3 134 150 135
3 137 141 138
3 140 228 134
3 141 229 142
3 143 152 132
3 144 145 124
3 122 230 143
3 145 148 128
3 142 229 146
3 148 231 149
3 150 232 151
3 152 233 153
