ply
format ascii 1.0
comment Created by Blender 2.79 (sub 0) - www.blender.org, source file: 'eraser.blend'
element vertex 92
property float x
property float y
property float z
property uchar red
property uchar green
property uchar blue
element face 132
property list uchar uint vertex_indices
end_header
-0.320000 0.661920 0.096621 255 78 118
-0.295790 0.746555 0.138902 255 78 118
-0.320000 0.807220 0.096621 255 78 118
0.262400 0.807220 0.096621 255 78 118
0.295951 0.746555 0.138902 255 78 118
0.320000 0.807220 0.096621 255 78 118
0.320000 -0.645776 0.096621 255 78 118
0.295951 -0.746149 0.138902 255 78 118
0.320000 -0.807220 0.096621 255 78 118
-0.256000 -0.807220 0.096621 255 78 118
-0.295790 -0.746149 0.138902 255 78 118
-0.320000 -0.807220 0.096621 255 78 118
-0.256000 -0.807220 -0.138902 255 78 118
-0.312263 -0.787702 -0.216586 64 20 30
-0.256000 -0.807220 -0.221167 64 20 30
-0.256000 -0.645776 0.138902 255 78 118
-0.236616 -0.746149 0.138902 255 78 118
0.262400 -0.645776 -0.221167 89 28 42
0.312263 -0.787702 -0.216586 64 20 30
0.262400 -0.807220 -0.221167 64 20 30
0.262400 0.807220 -0.138902 210 64 97
0.312263 0.787702 -0.216586 64 20 30
0.262400 0.807220 -0.221167 64 20 30
-0.320000 0.661920 -0.138902 255 78 118
-0.312263 0.787702 -0.216586 64 20 30
-0.320000 0.661920 -0.221167 65 20 30
0.320000 -0.645776 -0.138902 250 76 116
0.320000 -0.645776 -0.221167 65 21 31
0.320000 0.661920 -0.221167 64 20 30
0.320000 0.661920 -0.138902 165 50 77
-0.320000 -0.645776 -0.138902 255 78 118
-0.320000 -0.807220 -0.138902 255 78 118
0.262400 -0.645776 -0.221167 165 50 77
0.262400 0.661920 -0.221167 70 22 33
-0.295790 0.661663 0.138902 255 78 118
-0.256000 0.661920 0.138902 255 78 118
0.295951 0.661663 0.138902 255 78 118
0.320000 0.661920 0.096621 255 78 118
-0.320000 -0.645776 0.096621 255 78 118
-0.320000 -0.807220 0.096621 255 114 146
-0.236616 0.746555 0.138902 255 78 118
0.312263 0.787702 -0.216586 74 23 34
0.262400 0.661920 -0.221167 64 20 30
0.262400 0.807220 -0.221167 65 20 31
0.320000 0.807220 -0.138902 195 60 90
-0.320000 -0.645776 -0.221167 64 20 30
-0.295790 0.661663 0.138902 255 80 120
-0.312263 0.787702 -0.216586 89 28 42
-0.256000 0.661920 -0.221167 132 41 61
-0.320000 0.661920 -0.221167 249 76 115
0.242694 0.746555 0.138902 255 78 118
0.262400 0.661920 0.138902 255 78 118
0.262400 -0.645776 0.138902 255 78 118
-0.320000 -0.645776 -0.221167 255 84 122
-0.320000 0.661920 -0.221167 222 68 103
-0.256000 0.807220 -0.138902 255 78 118
-0.320000 0.807220 -0.138902 255 78 118
-0.256000 -0.645776 -0.221167 65 20 31
0.242694 -0.746149 0.138902 255 78 118
0.262400 -0.807220 -0.138902 255 78 118
0.262400 -0.807220 0.096621 255 78 118
-0.256000 0.807220 0.096621 255 78 118
0.320000 -0.807220 -0.138902 255 78 118
0.295951 -0.646330 0.138902 255 78 118
-0.256000 0.807220 -0.221167 217 66 100
0.262400 0.661920 -0.221167 129 40 60
-0.256000 -0.645776 -0.221167 203 62 93
-0.256000 0.661920 -0.221167 64 20 30
0.262400 0.807220 -0.138902 212 65 97
-0.256000 0.807220 -0.221167 64 20 30
-0.256000 -0.645776 -0.221167 64 20 30
-0.256000 0.807220 -0.116580 255 78 118
0.320000 -0.807220 -0.116580 255 78 118
-0.320000 0.807220 -0.116580 255 78 118
0.262400 -0.807220 -0.116580 255 78 118
-0.320000 -0.645776 -0.116580 255 78 118
0.320000 0.807220 -0.116580 255 78 118
-0.320000 -0.807220 -0.116580 255 78 118
0.320000 0.661920 -0.116580 253 77 117
0.320000 -0.645776 -0.138902 255 78 118
-0.256000 -0.807220 -0.116580 255 78 118
0.320000 -0.645776 -0.116580 255 78 118
0.262400 0.807220 -0.116580 255 78 118
-0.320000 0.661920 -0.116580 255 78 118
-0.295790 -0.646330 0.138902 255 78 118
0.320000 0.661920 -0.221167 66 21 31
-0.256000 0.661920 -0.221167 86 27 40
-0.256000 -0.645776 -0.221167 230 70 106
-0.256000 -0.807220 -0.221167 119 37 56
-0.312263 -0.787702 -0.216586 81 25 38
-0.256000 -0.807220 -0.221167 116 36 55
-0.320000 -0.807220 0.096621 255 82 122
3 0 1 2
3 3 4 5
3 6 7 8
3 9 10 11
3 12 13 14
3 15 10 16
3 17 18 19
3 20 21 22
3 23 24 25
3 26 18 27
3 26 28 29
3 30 13 31
3 28 32 33
3 34 15 35
3 36 6 37
3 10 38 39
3 4 37 5
3 1 35 40
3 41 42 43
3 29 21 44
3 23 45 30
3 38 46 0
3 47 48 49
3 50 35 51
3 35 52 51
3 48 53 54
3 55 24 56
3 57 13 45
3 15 58 52
3 12 19 59
3 58 9 60
3 1 61 2
3 7 60 8
3 59 18 62
3 52 7 63
3 36 52 63
3 4 51 36
3 43 48 64
3 65 66 67
3 68 69 55
3 17 14 70
3 61 50 3
3 71 68 55
3 72 59 62
3 73 55 56
3 74 12 59
3 75 23 30
3 76 29 44
3 77 30 31
3 78 79 29
3 80 31 12
3 81 62 26
3 82 44 68
3 83 56 23
3 61 82 71
3 8 74 72
3 73 61 71
3 60 80 74
3 38 83 75
3 5 78 76
3 77 38 75
3 37 81 78
3 80 11 77
3 6 72 81
3 3 76 82
3 0 73 83
3 0 46 1
3 3 50 4
3 6 63 7
3 9 16 10
3 12 31 13
3 15 84 10
3 17 27 18
3 68 44 21
3 23 56 24
3 26 62 18
3 26 27 28
3 30 45 13
3 85 27 17
3 34 84 15
3 36 63 6
3 10 84 38
3 4 36 37
3 1 34 35
3 41 28 42
3 29 28 21
3 23 25 45
3 38 84 46
3 47 64 48
3 50 40 35
3 35 15 52
3 86 70 53
3 55 69 24
3 87 88 89
3 15 16 58
3 12 14 19
3 58 16 9
3 1 40 61
3 7 58 60
3 59 19 18
3 52 58 7
3 36 51 52
3 4 50 51
3 43 65 48
3 42 17 87
3 68 22 69
3 17 19 90
3 61 40 50
3 71 82 68
3 72 74 59
3 73 71 55
3 74 80 12
3 75 83 23
3 76 78 29
3 77 75 30
3 78 81 26
3 80 77 31
3 81 72 62
3 82 76 44
3 83 73 56
3 61 3 82
3 8 60 74
3 73 2 61
3 60 9 80
3 38 0 83
3 5 37 78
3 77 91 38
3 37 6 81
3 80 9 11
3 6 8 72
3 3 5 76
3 0 2 73
