ply
format ascii 1.0
comment Created by Blender 2.79 (sub 0) - www.blender.org, source file: 'eraser.blend'
element vertex 190
property float x
property float y
property float z
property float nx
property float ny
property float nz
element face 66
property list uchar uint vertex_indices
end_header
-0.320000 0.661920 0.096621 -0.867805 -0.000001 0.496904
-0.295790 0.661663 0.138902 -0.867805 -0.000001 0.496904
-0.295790 0.746555 0.138902 -0.867805 -0.000001 0.496904
-0.320000 0.807220 0.096621 -0.867805 -0.000001 0.496904
0.262400 0.807220 0.096621 0.000000 0.571786 0.820402
0.242694 0.746555 0.138902 0.000000 0.571786 0.820402
0.295951 0.746555 0.138902 0.000000 0.571786 0.820402
0.320000 0.807220 0.096621 0.000000 0.571786 0.820402
0.320000 -0.645776 0.096621 0.869230 -0.000000 0.494408
0.295951 -0.646330 0.138902 0.869230 -0.000000 0.494408
0.295951 -0.746149 0.138902 0.869230 -0.000000 0.494408
0.320000 -0.807220 0.096621 0.869230 -0.000000 0.494408
-0.256000 -0.807220 0.096621 -0.000000 -0.569217 0.822187
-0.236616 -0.746149 0.138902 -0.000000 -0.569217 0.822187
-0.295790 -0.746149 0.138902 -0.000000 -0.569217 0.822187
-0.320000 -0.807220 0.096621 -0.000000 -0.569217 0.822187
-0.256000 -0.807220 -0.138902 -0.163616 -0.978278 -0.127289
-0.320000 -0.807220 -0.138902 -0.163616 -0.978278 -0.127289
-0.312263 -0.787702 -0.216586 -0.163616 -0.978278 -0.127289
-0.256000 -0.807220 -0.221167 -0.163616 -0.978278 -0.127289
-0.256000 -0.645776 0.138902 0.000000 -0.000000 1.000000
-0.295790 -0.646330 0.138902 0.000000 -0.000000 1.000000
-0.295790 -0.746149 0.138902 0.000000 -0.000000 1.000000
-0.236616 -0.746149 0.138902 0.000000 -0.000000 1.000000
0.262400 -0.645776 -0.221167 0.045527 -0.016243 -0.998831
0.320000 -0.645776 -0.221167 0.045527 -0.016243 -0.998831
0.312263 -0.787702 -0.216586 0.045527 -0.016243 -0.998831
0.262400 -0.807220 -0.221167 0.045527 -0.016243 -0.998831
0.262400 0.807220 -0.138902 0.182506 0.974865 -0.127787
0.320000 0.807220 -0.138902 0.182506 0.974865 -0.127787
0.312263 0.787702 -0.216586 0.182506 0.974865 -0.127787
0.262400 0.807220 -0.221167 0.182506 0.974865 -0.127787
-0.320000 0.661920 -0.138902 -0.998222 0.029368 -0.051871
-0.320000 0.807220 -0.138902 -0.998222 0.029368 -0.051871
-0.312263 0.787702 -0.216586 -0.998222 0.029368 -0.051871
-0.320000 0.661920 -0.221167 -0.998222 0.029368 -0.051871
0.320000 -0.645776 -0.138902 0.998329 -0.026239 -0.051495
0.320000 -0.807220 -0.138902 0.998329 -0.026239 -0.051495
0.312263 -0.787702 -0.216586 0.998329 -0.026239 -0.051495
0.320000 -0.645776 -0.221167 0.998329 -0.026239 -0.051495
0.320000 0.661920 -0.138902 1.000000 0.000000 -0.000000
0.320000 -0.645776 -0.138902 1.000000 0.000000 -0.000000
0.320000 -0.645776 -0.221167 1.000000 0.000000 -0.000000
0.320000 0.661920 -0.221167 1.000000 0.000000 -0.000000
-0.320000 -0.807220 -0.138902 -0.998329 -0.026239 -0.051495
-0.320000 -0.645776 -0.138902 -0.998329 -0.026239 -0.051495
-0.320000 -0.645776 -0.221167 -0.998329 -0.026239 -0.051495
-0.312263 -0.787702 -0.216586 -0.998329 -0.026239 -0.051495
0.262400 0.661920 -0.221167 0.000000 0.000000 -1.000000
0.320000 0.661920 -0.221167 0.000000 0.000000 -1.000000
0.320000 -0.645776 -0.221167 0.000000 0.000000 -1.000000
0.262400 -0.645776 -0.221167 0.000000 0.000000 -1.000000
-0.256000 0.661920 0.138902 -0.000004 -0.000000 1.000000
-0.295790 0.661663 0.138902 -0.000004 -0.000000 1.000000
-0.295790 -0.646330 0.138902 -0.000004 -0.000000 1.000000
-0.256000 -0.645776 0.138902 -0.000004 -0.000000 1.000000
0.320000 0.661920 0.096621 0.869230 0.000000 0.494408
0.295951 0.661663 0.138902 0.869230 0.000000 0.494408
-0.320000 -0.807220 0.096621 -0.867804 0.000000 0.496906
-0.295790 -0.746149 0.138902 -0.867804 0.000000 0.496906
-0.295790 -0.646330 0.138902 -0.867804 0.000000 0.496906
-0.320000 -0.645776 0.096621 -0.867804 0.000000 0.496906
0.320000 0.807220 0.096621 0.869230 -0.000000 0.494408
0.295951 0.746555 0.138902 0.869230 -0.000000 0.494408
-0.236616 0.746555 0.138902 -0.000003 -0.000001 1.000000
-0.295790 0.746555 0.138902 -0.000003 -0.000001 1.000000
-0.295790 0.661663 0.138902 -0.000003 -0.000001 1.000000
-0.256000 0.661920 0.138902 -0.000003 -0.000001 1.000000
0.262400 0.807220 -0.221167 0.045878 0.018187 -0.998781
0.312263 0.787702 -0.216586 0.045878 0.018187 -0.998781
0.320000 0.661920 -0.221167 0.045878 0.018187 -0.998781
0.262400 0.661920 -0.221167 0.045878 0.018187 -0.998781
0.320000 0.807220 -0.138902 0.998222 0.029368 -0.051871
0.320000 0.661920 -0.138902 0.998222 0.029368 -0.051871
0.320000 0.661920 -0.221167 0.998222 0.029368 -0.051871
0.312263 0.787702 -0.216586 0.998222 0.029368 -0.051871
-0.320000 -0.645776 -0.138902 -1.000000 0.000000 0.000000
-0.320000 0.661920 -0.138902 -1.000000 0.000000 0.000000
-0.320000 0.661920 -0.221167 -1.000000 0.000000 0.000000
-0.320000 -0.645776 -0.221167 -1.000000 0.000000 0.000000
-0.295790 0.661663 0.138902 -0.867804 -0.000000 0.496906
-0.320000 0.661920 0.096621 -0.867804 -0.000000 0.496906
-0.312263 0.787702 -0.216586 -0.040982 0.018051 -0.998997
-0.256000 0.807220 -0.221167 -0.040982 0.018051 -0.998997
-0.256000 0.661920 -0.221167 -0.040982 0.018051 -0.998997
-0.320000 0.661920 -0.221167 -0.040982 0.018051 -0.998997
0.242694 0.746555 0.138902 0.000000 -0.000000 1.000000
-0.236616 0.746555 0.138902 0.000000 -0.000000 1.000000
-0.256000 0.661920 0.138902 0.000000 -0.000000 1.000000
0.262400 0.661920 0.138902 0.000000 -0.000000 1.000000
0.262400 -0.645776 0.138902 -0.000000 -0.000000 1.000000
-0.320000 0.661920 -0.221167 0.000000 0.000000 -1.000000
-0.256000 0.661920 -0.221167 0.000000 0.000000 -1.000000
-0.256000 -0.645776 -0.221167 0.000000 0.000000 -1.000000
-0.320000 -0.645776 -0.221167 0.000000 0.000000 -1.000000
-0.320000 0.807220 -0.138902 -0.163616 0.978278 -0.127289
-0.256000 0.807220 -0.138902 -0.163616 0.978278 -0.127289
-0.256000 0.807220 -0.221167 -0.163616 0.978278 -0.127289
-0.312263 0.787702 -0.216586 -0.163616 0.978278 -0.127289
-0.320000 -0.645776 -0.221167 -0.040670 -0.016123 -0.999043
-0.256000 -0.645776 -0.221167 -0.040670 -0.016123 -0.999043
-0.256000 -0.807220 -0.221167 -0.040670 -0.016123 -0.999043
-0.312263 -0.787702 -0.216586 -0.040670 -0.016123 -0.999043
0.262400 -0.645776 0.138902 -0.000001 0.000000 1.000000
-0.256000 -0.645776 0.138902 -0.000001 0.000000 1.000000
-0.236616 -0.746149 0.138902 -0.000001 0.000000 1.000000
0.242694 -0.746149 0.138902 -0.000001 0.000000 1.000000
0.262400 -0.807220 -0.138902 0.000000 -1.000000 0.000000
-0.256000 -0.807220 -0.138902 0.000000 -1.000000 0.000000
-0.256000 -0.807220 -0.221167 0.000000 -1.000000 0.000000
0.262400 -0.807220 -0.221167 0.000000 -1.000000 0.000000
0.262400 -0.807220 0.096621 -0.000000 -0.569218 0.822186
0.242694 -0.746149 0.138902 -0.000000 -0.569218 0.822186
-0.236616 -0.746149 0.138902 -0.000000 -0.569218 0.822186
-0.256000 -0.807220 0.096621 -0.000000 -0.569218 0.822186
-0.320000 0.807220 0.096621 0.000000 0.571787 0.820402
-0.295790 0.746555 0.138902 0.000000 0.571787 0.820402
-0.236616 0.746555 0.138902 0.000000 0.571787 0.820402
-0.256000 0.807220 0.096621 0.000000 0.571787 0.820402
0.320000 -0.807220 0.096621 0.000000 -0.569220 0.822185
0.295951 -0.746149 0.138902 0.000000 -0.569220 0.822185
0.242694 -0.746149 0.138902 0.000000 -0.569220 0.822185
0.262400 -0.807220 0.096621 0.000000 -0.569220 0.822185
0.320000 -0.807220 -0.138902 0.182506 -0.974865 -0.127787
0.262400 -0.807220 -0.138902 0.182506 -0.974865 -0.127787
0.262400 -0.807220 -0.221167 0.182506 -0.974865 -0.127787
0.312263 -0.787702 -0.216586 0.182506 -0.974865 -0.127787
0.295951 -0.646330 0.138902 0.000000 -0.000000 1.000000
0.242694 -0.746149 0.138902 0.000000 -0.000000 1.000000
0.295951 -0.746149 0.138902 0.000000 -0.000000 1.000000
0.295951 0.661663 0.138902 0.000000 -0.000000 1.000000
0.295951 0.746555 0.138902 0.000000 -0.000000 1.000000
-0.256000 0.807220 -0.221167 0.000000 0.000000 -1.000000
0.262400 0.807220 -0.221167 0.000000 0.000000 -1.000000
-0.256000 0.807220 -0.138902 0.000000 1.000000 -0.000000
0.262400 0.807220 -0.138902 0.000000 1.000000 -0.000000
0.262400 0.807220 -0.221167 0.000000 1.000000 -0.000000
-0.256000 0.807220 -0.221167 0.000000 1.000000 -0.000000
0.262400 -0.807220 -0.221167 0.000000 0.000000 -1.000000
-0.256000 -0.807220 -0.221167 0.000000 0.000000 -1.000000
0.242694 0.746555 0.138902 -0.000000 0.571787 0.820402
0.262400 0.807220 0.096621 -0.000000 0.571787 0.820402
-0.256000 0.807220 -0.116580 0.000000 1.000000 0.000000
0.262400 0.807220 -0.116580 0.000000 1.000000 0.000000
0.320000 -0.807220 -0.138902 0.000000 -1.000000 0.000000
0.320000 -0.807220 -0.116580 0.000000 -1.000000 0.000000
0.262400 -0.807220 -0.116580 0.000000 -1.000000 0.000000
-0.320000 0.807220 -0.138902 0.000000 1.000000 0.000000
-0.320000 0.807220 -0.116580 0.000000 1.000000 0.000000
-0.256000 -0.807220 -0.116580 0.000000 -1.000000 0.000000
-0.320000 -0.645776 -0.116580 -1.000000 -0.000000 0.000000
-0.320000 0.661920 -0.116580 -1.000000 -0.000000 0.000000
0.320000 0.807220 -0.138902 1.000000 -0.000000 0.000000
0.320000 0.807220 -0.116580 1.000000 -0.000000 0.000000
0.320000 0.661920 -0.116580 1.000000 -0.000000 0.000000
-0.320000 -0.807220 -0.138902 -1.000000 -0.000000 0.000000
-0.320000 -0.807220 -0.116580 -1.000000 -0.000000 0.000000
0.320000 -0.645776 -0.116580 1.000000 -0.000000 0.000000
-0.320000 -0.807220 -0.116580 -0.000000 -1.000000 0.000000
-0.320000 -0.807220 -0.138902 -0.000000 -1.000000 0.000000
0.320000 -0.807220 -0.116580 1.000000 -0.000000 0.000000
0.320000 -0.807220 -0.138902 1.000000 -0.000000 0.000000
0.320000 0.807220 -0.116580 0.000000 1.000000 0.000000
0.320000 0.807220 -0.138902 0.000000 1.000000 0.000000
-0.320000 0.807220 -0.116580 -1.000000 -0.000000 0.000000
-0.320000 0.807220 -0.138902 -1.000000 -0.000000 0.000000
-0.256000 0.807220 -0.116580 0.000000 1.000000 -0.000001
-0.256000 0.807220 0.096621 0.000000 1.000000 -0.000001
0.262400 0.807220 0.096621 0.000000 1.000000 -0.000001
0.262400 0.807220 -0.116580 0.000000 1.000000 -0.000001
0.320000 -0.807220 -0.116580 0.000000 -1.000000 -0.000001
0.320000 -0.807220 0.096621 0.000000 -1.000000 -0.000001
0.262400 -0.807220 0.096621 0.000000 -1.000000 -0.000001
0.262400 -0.807220 -0.116580 0.000000 -1.000000 -0.000001
-0.320000 0.807220 -0.116580 0.000000 1.000000 -0.000001
-0.320000 0.807220 0.096621 0.000000 1.000000 -0.000001
-0.256000 -0.807220 0.096621 -0.000000 -1.000000 -0.000001
-0.256000 -0.807220 -0.116580 -0.000000 -1.000000 -0.000001
-0.320000 -0.645776 0.096621 -1.000000 -0.000000 0.000000
-0.320000 0.661920 0.096621 -1.000000 -0.000000 0.000000
0.320000 0.807220 0.096621 1.000000 -0.000000 0.000000
0.320000 0.661920 0.096621 1.000000 -0.000000 0.000000
-0.320000 -0.807220 0.096621 -1.000000 0.000000 0.000000
0.320000 -0.645776 0.096621 1.000000 0.000000 0.000000
-0.320000 -0.807220 0.096621 0.000000 -1.000000 -0.000001
-0.320000 -0.807220 -0.116580 0.000000 -1.000000 -0.000001
0.320000 -0.807220 0.096621 1.000000 -0.000000 0.000000
0.320000 0.807220 0.096621 0.000000 1.000000 -0.000001
0.320000 0.807220 -0.116580 0.000000 1.000000 -0.000001
-0.320000 0.807220 0.096621 -1.000000 0.000000 0.000000
4 0 1 2 3
4 4 5 6 7
4 8 9 10 11
4 12 13 14 15
4 16 17 18 19
4 20 21 22 23
4 24 25 26 27
4 28 29 30 31
4 32 33 34 35
4 36 37 38 39
4 40 41 42 43
4 44 45 46 47
4 48 49 50 51
4 52 53 54 55
4 56 57 9 8
4 58 59 60 61
4 62 63 57 56
4 64 65 66 67
4 68 69 70 71
4 72 73 74 75
4 76 77 78 79
4 61 60 80 81
4 82 83 84 85
4 86 87 88 89
4 89 88 20 90
4 91 92 93 94
4 95 96 97 98
4 99 100 101 102
4 103 104 105 106
4 107 108 109 110
4 111 112 113 114
4 115 116 117 118
4 119 120 121 122
4 123 124 125 126
4 127 90 128 129
4 130 89 90 127
4 131 86 89 130
4 132 133 48 92
4 92 48 51 93
4 134 135 136 137
4 93 51 138 139
4 118 117 140 141
4 134 142 143 135
4 144 145 146 107
4 147 148 142 134
4 107 146 149 108
4 76 150 151 77
4 152 153 154 40
4 155 156 150 76
4 40 154 157 41
4 158 159 108 149
4 41 157 160 161
4 135 143 162 163
4 77 151 164 165
4 166 167 168 169
4 170 171 172 173
4 174 175 167 166
4 173 172 176 177
4 150 178 179 151
4 153 180 181 154
4 156 182 178 150
4 154 181 183 157
4 177 176 184 185
4 157 183 186 160
4 169 168 187 188
4 151 179 189 164
